<svg height="201.071349" viewBox="0 0 160.24 64.65" width="497.335898" xmlns="http://www.w3.org/2000/svg"><path d="m27.49 42.06h1.32v.45h-1.32z" fill="#383434" fill-rule="evenodd" transform="translate(.05)"/><path d="m26.66 42.07v.43h-1.27v-.43z" fill="#383434" fill-rule="evenodd" transform="translate(.05)"/><path d="m22.3 40.15v.37h-1.3v-.37z" fill="#383434" fill-rule="evenodd" transform="translate(.05)"/><path d="m31 40.15h1.26v.38h-1.26z" fill="#383434" fill-rule="evenodd" transform="translate(.05)"/><path d="m24.55 41.42v-.36h1.33v.36z" fill="#383434" fill-rule="evenodd" transform="translate(.05)"/><path d="m28.62 40.51v-.36h1.38v.36z" fill="#383434" fill-rule="evenodd" transform="translate(.05)"/><path d="m29.09 41.42v-.37h1.33v.37z" fill="#383434" fill-rule="evenodd" transform="translate(.05)"/><path d="m33.45 40.52v-.37h.68v.37z" fill="#383434" fill-rule="evenodd" transform="translate(.05)"/><path d="m24.44 18.6c-.18 1.84-.68 3.3-1.1 3.26s-.62-1.57-.43-3.41.67-3.31 1.1-3.27.61 1.57.43 3.42z" fill="none" stroke="#383434" stroke-miterlimit="10" stroke-width=".29" transform="translate(.05)"/><path d="m23.15 19c-1.5-1.09-2.52-2.25-2.27-2.59s1.67.25 3.17 1.34 2.52 2.25 2.27 2.59-1.67-.23-3.17-1.34z" fill="none" stroke="#383434" stroke-miterlimit="10" stroke-width=".29" transform="translate(.05)"/><path d="m24 19.22c-1.75.62-3.28.8-3.42.4s1.15-1.23 2.9-1.85 3.28-.81 3.42-.41-1.18 1.23-2.9 1.86z" fill="none" stroke="#383434" stroke-miterlimit="10" stroke-width=".29" transform="translate(.05)"/><path d="m24 18.49a.27.27 0 1 1 -.54 0 .27.27 0 1 1 .54 0" fill="#383434" fill-rule="evenodd" transform="translate(.05)"/><path d="m27.34 11.73a15.8 15.8 0 0 0 -15.76 15.85 16 16 0 0 0 15.83 15.87 16 16 0 0 0 15.76-15.89 15.8 15.8 0 0 0 -15.83-15.83m-12.55 7.46q-1 6.19-2 12.39a14.63 14.63 0 0 1 2-12.39zm.54 6 .37.28c-.28.45-.6.55-.93.24zm-.39-1.19s0-.06.05-.08l.17-.14.33.3c-.22.26-.22.26-.55-.08zm2-2.4a3.9 3.9 0 0 1 -1.11-.65c0-.22-.07-.43-.08-.54s-.06-.28-.11-.53a3.75 3.75 0 0 1 1.26-1.1 4.07 4.07 0 0 0 -.21 1.37 3.73 3.73 0 0 0 .31 1.43zm-2 6.7-1 .61c.06-.42.11-.73.17-1.13zm-.49-1 .61-.48 1 .81c-.26.26-.5.42-.84.14s-.5-.34-.79-.52zm.55 3.7a.32.32 0 0 1 .27 0l1.25.8a.14.14 0 0 1 0 .07h-2.69c.43-.32.78-.61 1.17-.87zm-1.49.36c.08-.5.14-.89.22-1.34l.82.54zm3.29-1.77c.12.65.23 1.23.35 1.9l-1.53-1zm-1 0c-.81.64-.81.64-1.67-.09a6.53 6.53 0 0 1 1.36-.75c.22-.07.56.22.9.38zm.16-3-.32-.27.53-.34c.05.33.1.59.16.92zm-1.78 8.41c-.4-.8-.79-1.62-1.2-2.47h4.85a6.92 6.92 0 0 1 -3.36 2.55c-.09.05-.26.01-.29-.08zm3.89-1.78h.09v2.4s0 .09 0 .17h-.42c0-.73 0-1.44 0-2.14-.01-.08.26-.24.33-.4zm-.82.94v1.69h-.52a1.27 1.27 0 0 1 .52-1.66zm-1 .81v.87h-.51c-.15-.53-.14-.54.48-.84zm-1.59.74.6-.23v.39h-.59s-.04-.09-.04-.13zm5.66 5.2c-.86-.33-.95-.55-.75-1.71h.71v.22zm.06-2.15h-1c-.25 0-.25 0-.23-.35h1.45c.08.3 0 .39-.25.38zm-1-1 .48-.37.49.37a1.64 1.64 0 0 1 -.51.23c-.14.01-.3-.15-.45-.23zm15.29 3c0 .1-.15.22-.26.27-.82.36-1.65.7-2.47 1-.3.13-.61.24-.87.34-.39-.63-.95-.17-1.48-.4.06.29.09.47.13.67a15.51 15.51 0 0 1 -5.17-.09c0-.16 0-.3-.06-.51h-1.19a2.29 2.29 0 0 1 -.69-.08c-.56-.19-1.12-.42-1.67-.66a.4.4 0 0 1 -.23-.29c0-.44 0-.89 0-1.36h14a9.68 9.68 0 0 1 -.03 1.08zm.45-.17v-1.38h.71c.17.79.09 1-.7 1.35zm.92-1.8c-.39 0-.77 0-1.15 0-.06 0-.12-.11-.18-.18s.13-.15.2-.16a5.42 5.42 0 0 1 .57 0 3.25 3.25 0 0 1 .54 0c.08 0 .14.12.22.18s-.12.12-.19.13zm-1.06-1a1.63 1.63 0 0 1 .52-.24c.15 0 .3.15.46.24l-.5.33zm1.34 2.07v-.6l.35-.06c-.13-.42.19-.9-.29-1.29 0-.49-.31-.8-.9-.8a.8.8 0 0 0 -.92.87c-.55.2-.11.69-.34 1h-13.17c0-.2 0-.39 0-.58s.07-.34-.19-.39c0 0-.07-.14-.08-.22-.05-.43-.38-.68-.9-.68s-.89.26-.92.71v.14a1.46 1.46 0 0 0 -.23 1.21l.36.08v1a14.85 14.85 0 0 1 -3.85-3.61h24.3a15.22 15.22 0 0 1 -3.21 3.17zm-17.62-4v-3.09c.61.18.61.18.61.77v2.32zm1 0v-2.7c.29.1.52.17.74.26.06 0 .15.12.15.18v2.27zm4.64-2.42c0-.57 0-1.15 0-1.72 0-.2 0-.36-.28-.36h-2v1.94c-.74-.08-.74-.08-.74-.73 0-1.63 0-3.25 0-4.87a.52.52 0 0 1 .18-.4c1-.49 2.05-.95 3.09-1.42a1.63 1.63 0 0 1 .23-.07v8c-.4.13-.44.09-.44-.36zm.3 1v1.44h-.54v-1.55zm-1.47-.8-.49-.13v-1.51c1-.16 1-.16 1 .82v.88zm.46 2.24h-.5v-1.67c.49 0 .5 0 .5.45zm-1-1.33v1.33h-.53v-1.88c.6 0 .62 0 .62.54zm-1.06-.29v1.49a.46.46 0 0 1 0 .13h-.52v-2.23c.61.08.61.08.61.6zm7.79-.67c0 .48 0 .48-.54.45 0-.76 0-1.5 0-2.24 0-.31-.08-.44-.41-.43-.58 0-1.17 0-1.84 0v2.72l-1.04-.09v-.7c0-1.84 0-3.68 0-5.52a.47.47 0 0 1 .34-.53c1.06-.44 2.1-.92 3.14-1.38l.44-.16zm.28.93v1.35h-.67v-1.27zm-2.47-.39v-2.13h1v1.94c0 .06-.13.16-.2.16-.15.03-.42.02-.71.02zm.47.54v1.2h-.47v-1.2zm.45 0 .41-.06v1.27h-.41zm-1.37 0v1.26h-.57v-1.31zm-1-.08v1.33h-.64v-1.42zm7.41-8.67c.13-.06.26-.1.43-.16a2.47 2.47 0 0 1 0 .35v6.6c0 .3-.09.46-.44.45 0-.48 0-1 0-1.41 0-.23-.08-.33-.31-.33h-1.81v2.42l-.91.16v-1.19c0-1.76 0-3.52 0-5.29a.46.46 0 0 1 .33-.51c.9-.36 1.82-.76 2.75-1.14zm-1.41-.13c.09-1.51.18-2.95.26-4.39h.09c.13 1.31.25 2.62.37 3.94 0 .07-.08.18-.15.22a5.33 5.33 0 0 1 -.53.18zm2 7.69v2.43h-.62a18 18 0 0 1 0-2c.05-.17.42-.3.69-.48zm-2.25.24v-1.72h1.05v1.22a.3.3 0 0 1 -.19.19c-.2.11-.47.18-.79.26zm.19.39v1.81h-.48a13.38 13.38 0 0 1 0-1.42c.1-.17.33-.27.55-.44zm.45.13c0-.11.27-.21.49-.36v2h-.51c.07-.58.04-1.13.09-1.69zm-1.37.17v1.51h-.6v-1.46zm3.41-.89c0-.09.16-.2.27-.27a5.6 5.6 0 0 1 .58-.25v2.91h-.82c.03-.86.02-1.65.04-2.44zm1.22 2.39v-2.7c0-.55 0-.55.6-.79v3.44zm1.16 0v-2.53c.66.53.78 1.06.57 2.49zm1.06 0v-1.36c.53.21.59.39.46 1.32zm.94 0v-.68c.24.22.65.22.54.68zm1.8-.37a7.57 7.57 0 0 1 -3.7-3.29h5.2zm1.26-4c-1.68 0-3.35 0-5 .05a1.44 1.44 0 0 0 -.6.18c-.57.3-1.12.63-1.76 1v-8l-1.16.42c-.07-.7-.14-1.35-.2-2-.16-1.7-.33-3.41-.48-5.12 0-.17-.23-.41.06-.53a1.9 1.9 0 0 1 .81-.17 1.54 1.54 0 0 1 .65.3 1.62 1.62 0 0 0 2.28-.5.88.88 0 0 0 .14-.43.48.48 0 0 0 -.19-.36c-.07-.05-.24 0-.35.09s-.11.1-.17.15a1 1 0 0 1 -1.44 0 2 2 0 0 0 -1.71-.57 1.17 1.17 0 0 0 -1 1.66 1.29 1.29 0 0 1 0 .56c-.14 2.46-.29 4.92-.43 7.39 0 .22-.08.35-.3.41s-.5.18-.79.3v-1.6l-4.51 1.87v-1.81l-.39.16-3.87 1.67a.75.75 0 0 0 -.54.8v4.95.49a1 1 0 0 1 -.28 0l-1.78-.9a1 1 0 0 0 -.45-.07c-.2 0-.3-.05-.34-.26-.59-3.27-1.18-6.53-1.78-9.8 0 0 0-.25-.09-.51a5.6 5.6 0 0 0 1.34.64.39.39 0 0 0 .23.07c.45 0 .71-.71.78-1.53.31-.07.52-.21.52-.36s-.21-.3-.52-.37c-.05-.85-.32-1.62-.78-1.62a.42.42 0 0 0 -.24.07 5.28 5.28 0 0 0 -1.68 1.22 5.77 5.77 0 0 0 -.13-.58h-.52l.23-.36a14.82 14.82 0 0 1 13.18-6.13 15.06 15.06 0 0 1 14 12.53 15.44 15.44 0 0 1 -.2 6.24.39.39 0 0 1 -.47.36zm-23.79-11.78a1.65 1.65 0 0 0 -.81.18c0-.9.31-1.47.5-1.47s.43.5.49 1.3zm.18.82c-.08.75-.31 1.21-.49 1.21s-.44-.53-.49-1.37a1.73 1.73 0 0 0 .8.17z" fill="#383434" fill-rule="evenodd" transform="translate(.05)"/><path d="m22.3 40.15v.37h-1.3v-.37z" fill="#383434" fill-rule="evenodd" transform="translate(.05)"/><path d="m24.81 40.15v.37h-1.27v-.37z" fill="#383434" fill-rule="evenodd" transform="translate(.05)"/><path d="m27.34 40.15v.37h-1.27v-.37z" fill="#383434" fill-rule="evenodd" transform="translate(.05)"/><path d="m32.67 41.06v.37h-1.27v-.37z" fill="#383434" fill-rule="evenodd" transform="translate(.05)"/><path d="m23.54 41.05v.37h-1.27v-.37z" fill="#383434" fill-rule="evenodd" transform="translate(.05)"/><path d="m24.55 41.42v-.36h1.33v.36z" fill="#383434" fill-rule="evenodd" transform="translate(.05)"/><path d="m26.85 41.42v-.36h1.33v.36z" fill="#383434" fill-rule="evenodd" transform="translate(.05)"/><path d="m8.49 40.28v.46h-1.26a1 1 0 0 1 -.67.68v1h-.43v-1a1 1 0 0 1 -.79-.71h-1v-.46h1a1.17 1.17 0 0 1 .1-.26l-.69-.7.31-.29.67.67a.94.94 0 0 1 .4-.16v-.92h.43v.95a1.07 1.07 0 0 1 .38.2l.71-.74.33.33-.78.77a.88.88 0 0 1 0 .15z" fill="#fff" fill-rule="evenodd" transform="translate(.05)"/><path d="m1.42 26.55s1.19 2.31 2.94 0c0 0 .25 1.76-1.05 2h-.85s-1.37-.24-1-2z" fill="#fff" transform="translate(.05)"/><path d="m7.3 13.79-.3.83-.18-.18-.33.33a1 1 0 1 1 -.27-.32l.36-.34-.18-.19z" fill="#fff" transform="translate(.05)"/><path d="m14.05 4.66v.47a.92.92 0 0 1 1.13.87.83.83 0 0 1 -1 1v.48h1.82v.42h-.14v.47h.6v-.47h-.08v-.45h1.15v-.55h-.53v.1h-.69v-.64h-.31v.69h-.7a1.49 1.49 0 0 0 -.3-2.16 1.28 1.28 0 0 0 -.93-.23" fill="#fff" transform="translate(.05)"/><path d="m27.6 4.16v.43h.52v.41h-.52v.67h-.41v-.67h-.52v-.4h.52v-.44a1 1 0 0 1 -.35-1.9 1.54 1.54 0 0 1 -.44-.42l.31-.25a.84.84 0 0 0 1.28 0l.29.3a1.93 1.93 0 0 1 -.41.33 1 1 0 0 1 .57.92 1 1 0 0 1 -.84 1" fill="#fff" transform="translate(.05)"/><path d="m40.31 6.63a.78.78 0 0 1 -.22 0 .76.76 0 0 1 -.21 0z" fill="#fff" transform="translate(.05)"/><path d="m51.1 16.12a1.63 1.63 0 0 1 -.47.28c-1 .11-1-1-1.22-1.25a.31.31 0 0 0 -.48 0l-.48.38v1.07h-.4v-2.91h-.21v-.42h.81v.42h-.2v1.31l.54-.34a.59.59 0 0 1 .78.34c.29.58.44 1.49 1.11.82z" fill="#fff" transform="translate(.05)"/><path d="m47.29 41.24a.26.26 0 0 1 -.19-.06.33.33 0 0 0 .19.06" fill="#f2f4f5" fill-rule="evenodd" transform="translate(.05)"/><path d="m50.32 40.88a.36.36 0 0 1 -.72 0 .36.36 0 0 1 .19-.31 1.5 1.5 0 0 0 -.21-1.41 1.18 1.18 0 0 0 -1.19-.55 1.41 1.41 0 0 0 -1 1.21 1.36 1.36 0 0 0 0 .72.36.36 0 0 1 -.09.7.33.33 0 0 1 -.19-.06.36.36 0 0 1 -.15-.3.33.33 0 0 1 0-.17 2.61 2.61 0 0 1 -.08-.88 1.8 1.8 0 0 1 1.78-1.65 1.86 1.86 0 0 1 1.6 2v.5a.35.35 0 0 1 .08.22" fill="#fff" transform="translate(.05)"/><path d="m50.09 26.82a.37.37 0 0 1 .37-.36.36.36 0 0 1 .35.36.34.34 0 0 1 -.19.31 1.5 1.5 0 0 0 .22 1.41 1.18 1.18 0 0 0 1.19.55 1.43 1.43 0 0 0 1-1.21 1.59 1.59 0 0 0 0-.72.35.35 0 0 1 -.27-.34.36.36 0 0 1 .36-.36.31.31 0 0 1 .19.06.35.35 0 0 1 .16.3.47.47 0 0 1 0 .17 2.6 2.6 0 0 1 .07.88 1.79 1.79 0 0 1 -1.77 1.65 1.85 1.85 0 0 1 -1.6-2c0-.15 0-.33 0-.5a.35.35 0 0 1 -.08-.22" fill="#fff" transform="translate(.05)"/><g fill="#ac3838"><path d="m8.74 26.23.64.47-.38.16-.29-.18zm.67.9-.32-.21 1.53-.68v.46l-.8.35.13.09zm1.17.53-1.87-.05v-.43h1.87z" transform="translate(.05)"/><path d="m9.28 25.91c-.33 0-.48-.27-.44-.68h.3a.19.19 0 0 0 .18.21l.94.12a.19.19 0 0 0 .22-.16h.3c-.07.41-.29.59-.65.55zm.09-.91a.19.19 0 0 0 -.22.17h-.31c.06-.42.26-.61.62-.57l.85.11c.36 0 .52.28.48.7h-.3a.19.19 0 0 0 -.18-.21z" transform="translate(.05)"/><path d="m11 23.61-1 .24-.7-.15 1-.24zm-1.82.1 1.82.43-.09.39-1.83-.42zm.22-.95 1.83.43-.09.4-1.83-.43z" transform="translate(.05)"/><path d="m10.34 22.13.17-.51.3.1-.17.51zm-.7-.23.17-.54.3.1-.17.54zm2 .05-.18.53-.31-.1.18-.53zm-2 0 1.79.59-.14.41-1.78-.59z" transform="translate(.05)"/><path d="m10.11 20.6 1.72.77-.18.39-1.71-.76zm.79.1a.23.23 0 0 0 0-.16.25.25 0 0 0 -.13-.11.31.31 0 0 0 -.18 0 .19.19 0 0 0 -.11.12l-.07.14-.28-.13v-.13c.18-.4.43-.53.73-.39a.67.67 0 0 1 .24.17.26.26 0 0 1 0 .23.37.37 0 0 1 .46-.07l.37.18h.09.08l-.1.45h-.13l-.39-.18c-.15-.06-.25 0-.3.08l-.06.14-.29-.13z" transform="translate(.05)"/><path d="m12.59 19.84c-.2.37-.47.47-.79.3l-1.2-.61.2-.39 1.26.64a.19.19 0 0 0 .26-.07zm-.24-.2a.28.28 0 0 0 0-.15.23.23 0 0 0 -.11-.11l-1.24-.64.2-.4 1.21.61c.32.17.4.44.21.83z" transform="translate(.05)"/><path d="m12.19 16.88 1.52 1.12-.25.35-1.52-1.1zm1.86.63-.29.41-.26-.19.3-.4z" transform="translate(.05)"/><path d="m13.36 15.45 1.74.85-.3.35-.35-.19-.25.29-.2-.25.16-.2-.67-.38.9 1.21-.27.32-1.13-1.58z"/><path d="m14.83 13.89.12.78-.37-.13-.08-.34zm-.16 1.11-.08-.36 1.57.59-.34.32-.82-.32v.15zm.46 1.21-1.3-1.35.31-.3 1.31 1.35z" transform="translate(.05)"/><path d="m16.14 13.46a.2.2 0 0 0 -.28-.06l-.2-.25c.33-.25.61-.23.82 0zm.09 1a.25.25 0 0 0 .36.07l.2.25a.57.57 0 0 1 -.89-.06zm.84-.51c.19.24.12.49-.2.77l-.2-.26c.1-.09.13-.18.07-.25a.27.27 0 0 0 -.19-.06h-.38-.34a.6.6 0 0 1 -.43-.15c-.2-.25-.14-.5.17-.77l.2.25a.24.24 0 0 0 -.08.13.27.27 0 0 0 .05.13.12.12 0 0 0 .13 0h.73a.51.51 0 0 1 .47.17z" transform="translate(.05)"/><path d="m17.87 13.88-.37.23-1-1.6.36-.22zm-.63-1.82.37-.24 1 1.6-.37.23-.44-.65-.3.18-.17-.26.31-.19z" transform="translate(.05)"/><path d="m18.31 11.39.84 1.68-.37.18-.78-1.68zm1.25-.62.83 1.68-.36.18-.84-1.63zm-.07 2.13-.77-.79-.37-.74.11-.06.87 1-.33-1.31.12-.06.37.76.15 1.08z" transform="translate(.05)"/><path d="m20.83 10.26 1.13 1.57-.42.16-.22-.33-.35.14-.06-.32.23-.09-.42-.65.23 1.48-.39.16-.25-1.92z"/><path d="m21.72 9.9h.44v1.88h-.44z" transform="matrix(.94454843 -.32837213 .32837213 .94454843 -2.3 7.81)"/><path d="m23.22 9.54.89 1.72-.45.1-.17-.36-.36.08-.01-.32.24-.05-.31-.71v1.5l-.42.1.05-1.94z"/><path d="m24.61 11.15h-.43l-.18-1.81.43-.06zm.2-1.92.43-.05.23 1.82-.43.05-.1-.81-.36.05v-.31h.35z" transform="translate(.05)"/><path d="m27 9.81h.53v.31h-.53zm0-.75h.56v.32h-.56zm.6 1.87h-.6v-.32h.57zm-.7-1.86v1.87h-.43v-1.87z" transform="translate(.05)"/><path d="m28.41 9.09h.22c.4 0 .59.22.56.57l-.07.81c0 .36-.24.52-.65.49h-.22v-.32h.15a.31.31 0 0 0 .18 0 .19.19 0 0 0 .07-.12l.07-.88a.17.17 0 0 0 -.05-.15.24.24 0 0 0 -.17-.06h-.15zm-.07 0-.15 1.91h-.43l.16-1.87z" transform="translate(.05)"/><path d="m29.91 11.16c-.41-.09-.58-.32-.51-.68l.25-1.32.43.08-.26 1.39a.18.18 0 0 0 .15.23zm.13-.29a.24.24 0 0 0 .15 0 .19.19 0 0 0 .07-.14l.26-1.39.44.09-.25 1.33c-.07.36-.31.5-.73.43z" transform="translate(.05)"/><path d="m32 9.58c.42.1.58.32.51.65v.17l-.51-.1v-.19a.17.17 0 0 0 -.14-.23zm-.37 1.61a.17.17 0 0 0 .22-.13l.06-.26.44.11v.19c-.08.35-.33.47-.74.38zm-.43-1.27q.12-.47.72-.36l-.07.3a.17.17 0 0 0 -.21.14l-.23.95a.18.18 0 0 0 .13.22l-.07.29c-.39-.1-.55-.33-.47-.67z" transform="translate(.05)"/><path d="m33.86 10.18-.13 1.93-.43-.14.03-.4-.35-.12.15-.28.24.08.1-.77-.77 1.29-.41-.13 1.04-1.64z"/><path d="m35.5 10.91-.13.29-1.21-.56.13-.28zm-1 0 .39.17-.62 1.36-.39-.18z" transform="translate(.05)"/><path d="m34.54 11.73h1.88v.44h-1.88z" transform="matrix(.45352391 -.89124411 .89124411 .45352391 8.79 38.15)"/><path d="m36.15 11.78c.17-.29.44-.34.81-.14l-.16.27a.18.18 0 0 0 -.26.08l-.47.82a.18.18 0 0 0 .06.26l-.15.27c-.36-.23-.44-.5-.26-.81zm.78.43a.18.18 0 0 0 -.06-.26l.15-.27c.37.21.47.47.29.78l-.43.75c-.18.31-.46.37-.84.17l.16-.27a.17.17 0 0 0 .26-.08z" transform="translate(.05)"/><path d="m37.61 14.25.18-1 .38-.53-.17 1.01zm.61-1.72-1.11 1.52-.32-.24 1.1-1.52zm.79.57-1.1 1.52-.33-.24 1.1-1.52z" transform="translate(.05)"/><path d="m39.83 14.83.39.36-.22.23-.38-.37zm.52-.54.41.39-.22.23-.41-.39zm-.05 0-1.3 1.32-.32-.3 1.32-1.37z" transform="translate(.05)"/><path d="m40.62 15.24c.26-.22.52-.18.81.13l-.24.2a.16.16 0 0 0 -.26 0l-.72.62a.18.18 0 0 0 0 .27l-.23.2c-.26-.33-.25-.61 0-.85zm.6.66a.18.18 0 0 0 0-.27l.23-.2c.28.32.28.6 0 .83l-.65.56c-.27.24-.56.2-.84-.11l.23-.2a.18.18 0 0 0 .27 0z" transform="translate(.05)"/><path d="m40.92 17.86a.54.54 0 0 1 .08-.86l1.1-.77.25.36-1.15.81a.19.19 0 0 0 -.06.27zm.29-.11a.23.23 0 0 0 .13.08.19.19 0 0 0 .15 0l1.15-.83.26.36-1.11.78c-.3.21-.58.14-.83-.2z" transform="translate(.05)"/><path d="m42.08 19.34.59-.89.56-.33-.59.89zm1.25-1.34-1.62 1-.2-.35 1.62-.94zm.5.85-1.63.95-.2-.35 1.62-.95z" transform="translate(.05)"/><path d="m44.24 19.67.09.2c.17.37.09.63-.23.77l-.74.34c-.32.15-.57 0-.74-.33l-.09-.19.29-.14.06.14a.28.28 0 0 0 .11.14.17.17 0 0 0 .14 0l.8-.37c.06 0 .1-.06.11-.11a.31.31 0 0 0 0-.18l-.04-.14zm0-.06-1.71.78-.21-.39 1.68-.78z" transform="translate(.05)"/><path d="m45.09 21.6-1.58 1.13-.16-.42.33-.23-.14-.35.32-.05.09.23.65-.42-1.49.23-.15-.4 1.92-.24z"/><path d="m45.55 23.37-.31.08-.35-1.29.3-.08zm-.61-.76.11.42-1.44.4-.11-.43z" transform="translate(.05)"/><path d="m43.79 23.8h1.88v.44h-1.88z" transform="matrix(.97425215 -.2254612 .2254612 .97425215 -4.22 10.71)"/><path d="m45.31 24.49c.33 0 .53.15.59.56h-.3a.18.18 0 0 0 -.22-.15l-.94.11a.19.19 0 0 0 -.18.21h-.3c0-.42.13-.65.5-.69zm.13.88a.17.17 0 0 0 .17-.21h.31c0 .43-.1.66-.46.7l-.85.11c-.36 0-.58-.15-.64-.57h.3a.2.2 0 0 0 .23.16z" transform="translate(.05)"/><path d="m44.28 27.14.94-.5h.66l-1 .49zm1.72-.57-1.88.05v-.41h1.87zm0 1h-1.87v-.41h1.87z" transform="translate(.05)"/><path d="m8.88 33.43 1.46-.53.06.19-.72.26.98.47.1.26-.81-.4-.64.95-.09-.26.55-.78-.32-.15-.5.18z"/><path d="m9.35 34.8 1.41-.64.08.19-.77 1.24 1.11-.5.08.18-1.41.63-.08-.19.77-1.24-1.11.5z"/><path d="m10.6 35.83a.8.8 0 0 1 .63-.08.7.7 0 0 1 .43.38.78.78 0 0 1 .08.39.7.7 0 0 1 -.14.36 1 1 0 0 1 -.34.27 1.07 1.07 0 0 1 -.41.1.81.81 0 0 1 -.38-.12.91.91 0 0 1 -.25-.3.68.68 0 0 1 -.07-.39.64.64 0 0 1 .14-.36.76.76 0 0 1 .31-.25zm.09.19a.59.59 0 0 0 -.33.33.49.49 0 0 0 0 .41.55.55 0 0 0 .31.27.71.71 0 0 0 .48-.07 1 1 0 0 0 .27-.21.5.5 0 0 0 .11-.26.54.54 0 0 0 -.05-.28.53.53 0 0 0 -.3-.27.66.66 0 0 0 -.49.06z" transform="translate(.05)"/><path d="m10.88 37.92 1.12-1.17.11.18-.73.74-.23.22.28-.09 1-.31.13.21-.54.6c-.14.15-.27.28-.4.4l.33-.12 1-.33.11.18-1.53.47-.11-.17.83-.9.12-.14-.18.05-1.19.36z" transform="translate(.05)"/><path d="m11.93 39.37 1.21-.96.12.17-1.07.84.47.6-.14.11z"/><path d="m12.69 40.31 1.16-1.01.74.84-.14.12-.6-.69-.36.31.56.65-.13.12-.56-.65-.4.35.62.71-.13.12z"/><path d="m13.6 41.38 1.08-1.12.38.37a1.36 1.36 0 0 1 .18.21.54.54 0 0 1 .09.24.67.67 0 0 1 -.05.31 1.21 1.21 0 0 1 -.21.31 2 2 0 0 1 -.25.2l-.23.09h-.2a.65.65 0 0 1 -.38-.23zm.28 0 .24.23a.54.54 0 0 0 .19.14.28.28 0 0 0 .15 0 .49.49 0 0 0 .22-.06.94.94 0 0 0 .24-.19.83.83 0 0 0 .2-.32.44.44 0 0 0 0-.26 1.1 1.1 0 0 0 -.17-.21l-.23-.22z" transform="translate(.05)"/><path d="m15.67 42.42.11-.15.52.4-.35.45a1 1 0 0 1 -.35 0 1.4 1.4 0 0 1 -.3-.15 1 1 0 0 1 -.3-.37.62.62 0 0 1 0-.4.86.86 0 0 1 .17-.38 1.13 1.13 0 0 1 .34-.28.6.6 0 0 1 .39-.06.86.86 0 0 1 .38.17.76.76 0 0 1 .21.23.45.45 0 0 1 .07.25.74.74 0 0 1 -.06.27l-.18-.07a.64.64 0 0 0 .05-.2.41.41 0 0 0 -.07-.13.56.56 0 0 0 -.15-.16.75.75 0 0 0 -.21-.12.45.45 0 0 0 -.2 0 .32.32 0 0 0 -.17.06.79.79 0 0 0 -.24.21.8.8 0 0 0 -.16.32.57.57 0 0 0 0 .29.67.67 0 0 0 .19.22.55.55 0 0 0 .24.12.45.45 0 0 0 .22 0l.17-.23z" transform="translate(.05)"/><path d="m16.12 43.47.9-1.26.91.65-.11.15-.74-.53-.28.39.7.49-.11.15-.69-.5-.31.43.77.55-.1.15z"/><path d="m18.78 43.7.11-.11.17.19a2.55 2.55 0 0 1 .1-.24l.13.07a1.54 1.54 0 0 1 -.14.22h.27v.16l-.26-.07c0 .06 0 .14.07.26h-.15q0-.1 0-.27l-.22.14-.12-.05.24-.1z" transform="translate(.05)"/><path d="m20.19 45.72.58-1.44.19.08-.51 1.27.71.28-.07.17z"/><path d="m21.33 46.15.41-1.49 1.07.3-.04.17-.88-.24-.13.46.82.23-.05.17-.82-.23-.14.51.91.25-.05.18z"/><path d="m22.5 46.49.93-1.37.22.05.26 1.65h-.23l-.07-.5-.61-.2-.27.42zm.57-.52.52.12-.06-.45c0-.14 0-.25 0-.34a1.82 1.82 0 0 1 -.15.27z" transform="translate(.05)"/><path d="m24.06 46.86.18-1.54.53.07a1.19 1.19 0 0 1 .27 0 .54.54 0 0 1 .22.13.73.73 0 0 1 .15.29 1.12 1.12 0 0 1 0 .37 1.29 1.29 0 0 1 -.07.31 1.07 1.07 0 0 1 -.13.21.83.83 0 0 1 -.16.12.53.53 0 0 1 -.19.06h-.25zm.23-.16h.33.24a.26.26 0 0 0 .14-.06.55.55 0 0 0 .14-.19.73.73 0 0 0 .07-.29.75.75 0 0 0 0-.38.4.4 0 0 0 -.17-.19.84.84 0 0 0 -.26-.07h-.32z" transform="translate(.05)"/><path d="m25.66 47.03.12-1.54 1.11.09-.01.18-.91-.07-.03.47.85.07-.02.18-.85-.07-.04.53.95.07-.02.18z"/><path d="m27.05 47.14-.05-1.55h.68a.73.73 0 0 1 .32 0 .29.29 0 0 1 .17.14.49.49 0 0 1 .08.23.4.4 0 0 1 -.1.28.51.51 0 0 1 -.32.15l.12.08a.88.88 0 0 1 .18.2l.28.41h-.25l-.22-.32-.15-.21a.39.39 0 0 0 -.11-.09h-.1-.35v.69zm.18-.87h.44a.56.56 0 0 0 .21 0 .23.23 0 0 0 .12-.09.25.25 0 0 0 0-.18.26.26 0 0 0 0-.2.31.31 0 0 0 -.25-.06h-.49z" transform="translate(.05)"/><path d="m28.5 46.58h.19a.38.38 0 0 0 .08.18.31.31 0 0 0 .16.11.5.5 0 0 0 .24 0 .65.65 0 0 0 .21 0 .22.22 0 0 0 .12-.11.2.2 0 0 0 0-.13.17.17 0 0 0 -.06-.12.24.24 0 0 0 -.14-.08 2.28 2.28 0 0 0 -.28-.06 1.63 1.63 0 0 1 -.31-.07.45.45 0 0 1 -.17-.13.44.44 0 0 1 -.07-.19.34.34 0 0 1 0-.22.42.42 0 0 1 .18-.17.83.83 0 0 1 .28-.08.78.78 0 0 1 .31 0 .39.39 0 0 1 .21.14.5.5 0 0 1 .09.24h-.19a.31.31 0 0 0 -.12-.21.47.47 0 0 0 -.28-.06.42.42 0 0 0 -.26.09.18.18 0 0 0 -.07.17.14.14 0 0 0 .07.13.59.59 0 0 0 .31.09l.35.07a.55.55 0 0 1 .21.14.42.42 0 0 1 .08.22.37.37 0 0 1 -.05.23.5.5 0 0 1 -.19.19.7.7 0 0 1 -.29.08 1 1 0 0 1 -.36 0 .55.55 0 0 1 -.23-.17.54.54 0 0 1 -.02-.28z" transform="translate(.05)"/><path d="m30.1 46.95-.29-1.52.21-.03.11.62.79-.15-.12-.62.2-.04.29 1.52-.21.04-.13-.72-.78.15.13.71z"/><path d="m31.43 45.1h.21v1.54h-.21z" transform="matrix(.97444853 -.22461092 .22461092 .97444853 -9.45 8.26)"/><path d="m32.16 46.52-.42-1.52.57-.16a1.39 1.39 0 0 1 .23-.05.44.44 0 0 1 .2 0 .42.42 0 0 1 .16.11.44.44 0 0 1 .1.19.53.53 0 0 1 0 .35.62.62 0 0 1 -.4.26l-.38.1.16.61zm0-.83.38-.11a.36.36 0 0 0 .25-.15.27.27 0 0 0 0-.22.28.28 0 0 0 -.09-.14.24.24 0 0 0 -.15-.06.63.63 0 0 0 -.19 0l-.38.1z" transform="translate(.05)"/><path d="m34.08 44.56v-.15a1 1 0 0 1 .26 0c0-.12-.09-.2-.11-.24l.14-.06a1.2 1.2 0 0 1 .07.26 1.84 1.84 0 0 1 .2-.19l.1.12a1.14 1.14 0 0 1 -.23.15 1.31 1.31 0 0 1 .24.12l-.08.13a1.65 1.65 0 0 1 -.22-.16 2.46 2.46 0 0 1 0 .26h-.15a2.21 2.21 0 0 1 .09-.24z" transform="translate(.05)"/><path d="m36.57 43 .18-.11.45.78a.85.85 0 0 1 .14.34.43.43 0 0 1 -.05.29.66.66 0 0 1 -.27.25.61.61 0 0 1 -.34.12.47.47 0 0 1 -.28-.09 1.16 1.16 0 0 1 -.25-.3l-.45-.77.18-.1.45.76a.91.91 0 0 0 .18.24.27.27 0 0 0 .19.06.49.49 0 0 0 .22-.06.42.42 0 0 0 .22-.25.57.57 0 0 0 -.14-.36z" transform="translate(.05)"/><path d="m37.88 44.1-.9-1.25.17-.13 1.36.51-.71-.98.16-.12.91 1.26-.17.12-1.37-.51.71.98z"/><path d="m39.17 43.16-.96-1.21.16-.13.96 1.21z"/><path d="m39.9 42.53-1.46-.78.16-.14 1 .58.23.14a1.86 1.86 0 0 1 -.1-.25l-.39-1.08.16-.13.56 1.56z" transform="translate(.05)"/><path d="m40.7 41.86-1.06-1.13.81-.76.13.13-.67.62.33.35.62-.58.12.13-.62.58.36.39.69-.65.13.13z"/><path d="m41.67 40.85-1.16-1 .45-.52a.79.79 0 0 1 .24-.2.33.33 0 0 1 .22 0 .51.51 0 0 1 .22.11.4.4 0 0 1 .14.26.55.55 0 0 1 -.11.34.43.43 0 0 1 .14 0 .77.77 0 0 1 .26 0l.5.07-.17.09h-.4-.26a.29.29 0 0 0 -.14 0 .19.19 0 0 0 -.09 0 .29.29 0 0 0 -.08.08l-.16.18.52.45zm-.51-.73.29-.33a.69.69 0 0 0 .12-.18.23.23 0 0 0 -.07-.27.23.23 0 0 0 -.19-.06.37.37 0 0 0 -.22.14l-.32.37z" transform="translate(.05)"/><path d="m42.24 39.43.09-.17a.41.41 0 0 0 .2.06.38.38 0 0 0 .19-.06.64.64 0 0 0 .17-.16.46.46 0 0 0 .09-.19.22.22 0 0 0 0-.16.2.2 0 0 0 -.08-.12.28.28 0 0 0 -.13 0l-.15.06-.22.18a1.62 1.62 0 0 1 -.25.19.47.47 0 0 1 -.22 0 .34.34 0 0 1 -.19-.07.37.37 0 0 1 -.14-.18.42.42 0 0 1 0-.25.76.76 0 0 1 .12-.26.86.86 0 0 1 .22-.21.47.47 0 0 1 .25-.07.46.46 0 0 1 .25.08l-.11.17a.3.3 0 0 0 -.24 0 .36.36 0 0 0 -.21.17.43.43 0 0 0 -.11.26.22.22 0 0 0 .09.16.15.15 0 0 0 .14 0 .82.82 0 0 0 .27-.19 2.05 2.05 0 0 1 .28-.22.49.49 0 0 1 .24-.07.44.44 0 0 1 .22.07.38.38 0 0 1 .15.2.45.45 0 0 1 0 .26.71.71 0 0 1 -.13.28 1 1 0 0 1 -.25.25.55.55 0 0 1 -.28.07.51.51 0 0 1 -.26-.08z" transform="translate(.05)"/><path d="m43.42 38.63-1-1.34.12-.19 1.64.32-.13.19-.48-.1-.36.54.3.4zm-.29-.72.29-.44-.45-.1-.33-.08a2.29 2.29 0 0 1 .21.23z" transform="translate(.05)"/><path d="m44.34 37.28-1.39-.69.1-.18 1.21.61.34-.68.17.08z"/><path d="m44.89 36.17-1.41-.62.08-.19 1.42.63z"/><path d="m45.28 35.3-1.26-.52-.19.48-.17-.07.46-1.13.17.06-.19.47 1.26.52z"/><path d="m45.72 34-.62-.21-1 .29.08-.24.54-.14.29-.07-.2-.24-.37-.39.08-.23.65.87.62.2z" transform="translate(.05)"/></g><path d="m59.33 64.43a2.66 2.66 0 0 1 -2-.69 2.61 2.61 0 0 1 -.69-1.94v-4.5h1.06v4.53a1.66 1.66 0 0 0 .41 1.2 1.87 1.87 0 0 0 2.36 0 1.62 1.62 0 0 0 .42-1.2v-4.53h1.11v4.5a2.58 2.58 0 0 1 -.7 1.94 2.66 2.66 0 0 1 -2 .69" fill="#282828" transform="translate(.05)"/><path d="m67.64 64.35v-7.05h.96l3.7 5.4-.12.13v-5.53h1.04v7.05h-.97l-3.69-5.32.13-.13v5.45z" fill="#282828"/><path d="m78.93 57.3h1.06v7.05h-1.06z" fill="#282828"/><path d="m87.39 64.35-2.47-7.05h1.15l1.82 5.53 1.81-5.53h1.16l-2.47 7.05z" fill="#282828"/><path d="m95.74 64.35v-7h1.06v7zm.51-6.11v-.94h4.34v.94zm0 3.08v-.94h3.75v.94zm0 3v-.94h4.34v.94z" fill="#282828" transform="translate(.05)"/><path d="m105.94 64.35v-7.06h1.06v7.06zm.46-3v-.94h2.79a.71.71 0 0 0 .59-.3 1.31 1.31 0 0 0 .22-.8 1.33 1.33 0 0 0 -.22-.8.71.71 0 0 0 -.59-.3h-2.79v-.94h2.75a2.08 2.08 0 0 1 1 .26 1.69 1.69 0 0 1 .69.71 2.41 2.41 0 0 1 0 2.14 1.63 1.63 0 0 1 -.69.71 2.08 2.08 0 0 1 -1 .26zm3.79 3-1.73-3.2 1.05-.22 1.94 3.42z" fill="#282828" transform="translate(.05)"/><path d="m118.91 64.43a5.15 5.15 0 0 1 -1.51-.22 4 4 0 0 1 -1.23-.66l.66-.75a3 3 0 0 0 1 .52 3.39 3.39 0 0 0 1.13.17 2.39 2.39 0 0 0 1.27-.28.9.9 0 0 0 .45-.8.76.76 0 0 0 -.23-.61 1.33 1.33 0 0 0 -.6-.32 5.76 5.76 0 0 0 -.81-.17l-.86-.17a2.57 2.57 0 0 1 -.79-.29 1.38 1.38 0 0 1 -.59-.56 1.84 1.84 0 0 1 -.23-1 1.81 1.81 0 0 1 .71-1.52 3.15 3.15 0 0 1 2-.54 4.08 4.08 0 0 1 2.32.73l-.6.79a3 3 0 0 0 -1.72-.59 2.1 2.1 0 0 0 -1.21.29.93.93 0 0 0 -.43.81.76.76 0 0 0 .25.6 1.69 1.69 0 0 0 .66.31c.27.07.55.13.86.19a7.68 7.68 0 0 1 .83.19 2.7 2.7 0 0 1 .76.31 1.58 1.58 0 0 1 .55.57 1.94 1.94 0 0 1 .2.93 1.75 1.75 0 0 1 -.73 1.51 3.35 3.35 0 0 1 -2 .54" fill="#282828" transform="translate(.05)"/><path d="m127.07 57.3h1.06v7.05h-1.06z" fill="#282828"/><path d="m132.75 58.24v-.94h5.34v.94zm2.14 6.11v-6.48h1.11v6.48z" fill="#282828" transform="translate(.05)"/><path d="m147.85 57.3-2.31 4.18v2.87h-1.06v-2.87l-2.3-4.18h1.18l1.65 3.18 1.66-3.18z" fill="#282828"/><path d="m47.07 60.86a3.59 3.59 0 0 0 .27-.25c.49-.55.28-1.62-.4-1.73h-.24-2v4.12h2.2a1 1 0 0 0 .88-.87 1.13 1.13 0 0 0 -.71-1.24m-2.07-1.79h1.78a.88.88 0 0 1 0 1.69c-.57 0-1.13 0-1.73 0v-.16zm1.81 3.62c-.59 0-1.19 0-1.81 0v-1.72h1.86a.82.82 0 0 1 .64.86.85.85 0 0 1 -.68.86z" fill="#383434" transform="translate(.05)"/><path d="m47.07 60.85a2.27 2.27 0 0 0 .27-.24c.49-.55.28-1.62-.4-1.73h-.25-2v4.12h2.21a1 1 0 0 0 .87-.88 1.11 1.11 0 0 0 -.7-1.27zm-2.07-1.75h1.78a.83.83 0 0 1 .61.86.87.87 0 0 1 -.66.83c-.57 0-1.14 0-1.73 0zm1.81 3.62c-.6 0-1.19 0-1.81 0v-1.72h1.86a.8.8 0 0 1 .63.86.83.83 0 0 1 -.67.86z" fill="none" stroke="#383434" stroke-miterlimit="10" stroke-width=".25" transform="translate(.05)"/><path d="m151.56 57.23.32-.16c1.69 2.74 1.88 4.85 0 7.52l-.31-.18c1.65-2.78 1.56-4.13 0-7.18" fill="#383434" fill-rule="evenodd" transform="translate(.05)"/><path d="m151.56 57.23.32-.16c1.69 2.74 1.88 4.85 0 7.52l-.3-.19c1.64-2.78 1.55-4.13-.02-7.17z" fill="none" stroke="#383434" stroke-miterlimit="10" stroke-width=".1" transform="translate(.05)"/><path d="m1.31 57.08.31.15a8.4 8.4 0 0 0 -1.22 3.57 6.22 6.22 0 0 0 1.23 3.58l-.29.21c-1.77-1.8-1.78-5.26 0-7.51" fill="#383434" fill-rule="evenodd" transform="translate(.05)"/><path d="m1.31 57.08.31.15a8.27 8.27 0 0 0 -1.22 3.57 6.24 6.24 0 0 0 1.23 3.58l-.3.2c-1.77-1.8-1.78-5.25-.02-7.5z" fill="none" stroke="#383434" stroke-miterlimit="10" stroke-width=".1" transform="translate(.05)"/><path d="m41.18 60.9a2 2 0 1 1 -2-2.12 2 2 0 0 1 2 2.12m-3.62 0a1.78 1.78 0 0 0 1.44 1.84 1.65 1.65 0 0 0 1.85-1.32 1.8 1.8 0 0 0 -1.71-2.36 1.77 1.77 0 0 0 -1.58 1.83z" fill="#383434" transform="translate(.05)"/><path d="m41.18 60.9a2 2 0 1 1 -2-2.12 2 2 0 0 1 2 2.12zm-3.63 0a1.8 1.8 0 0 0 1.45 1.84 1.65 1.65 0 0 0 1.85-1.32 1.82 1.82 0 0 0 -1.71-2.37 1.8 1.8 0 0 0 -1.59 1.84z" fill="none" stroke="#383434" stroke-miterlimit="10" stroke-width=".25" transform="translate(.05)"/><path d="m34.65 59.54v2c-.01-.69 0-1.35 0-2z" fill="none" stroke="#383434" stroke-miterlimit="10" stroke-width=".25" transform="translate(.05)"/><path d="m8.64 59.09v1.62h2.08v.29h-2.09v1.75h2.42v.25h-2.72v-4.19h2.72v.27h-2.41" fill="#383434" transform="translate(.05)"/><path d="m8.63 59.09v1.62h2.08v.29h-2.08v1.75h2.42v.25h-2.72v-4.2h2.72v.27h-2.42z" fill="none" stroke="#383434" stroke-miterlimit="10" stroke-width=".25" transform="translate(.05)"/><path d="m6.69 60a1.66 1.66 0 0 0 -.69-.92 1.41 1.41 0 0 0 -.51-.18 9.2 9.2 0 0 0 -1.16-.09h-.85v4.19h1.52a2.2 2.2 0 0 0 1-.26 1.76 1.76 0 0 0 .77-1 2.51 2.51 0 0 0 0-1.83m-.26 1.76a1.44 1.44 0 0 1 -1.24 1h-.52-.97v-1.67-.28-1.63h.92a5.07 5.07 0 0 1 .55 0 1.47 1.47 0 0 1 1.23 1.11 2.27 2.27 0 0 1 -.05 1.52z" fill="#383434" transform="translate(.05)"/><path d="m6.69 60a1.67 1.67 0 0 0 -.7-.88 1.41 1.41 0 0 0 -.51-.18 8.91 8.91 0 0 0 -1.15-.09h-.85v4.15h1.52a2.06 2.06 0 0 0 1-.26 1.81 1.81 0 0 0 .77-1 2.51 2.51 0 0 0 -.08-1.74zm-.26 1.76a1.42 1.42 0 0 1 -1.24 1 4.41 4.41 0 0 1 -.52 0h-.89v-1.76-.28-1.63h.9a5.25 5.25 0 0 1 .56 0 1.45 1.45 0 0 1 1.23 1.11 2.27 2.27 0 0 1 -.04 1.52z" fill="none" stroke="#383434" stroke-miterlimit="10" stroke-width=".25" transform="translate(.05)"/><path d="m30 60a1.72 1.72 0 0 0 -.7-.88 1.41 1.41 0 0 0 -.51-.18 8.92 8.92 0 0 0 -1.16-.09h-.84v4.15h1.55a2.15 2.15 0 0 0 .91-.26 1.75 1.75 0 0 0 .76-1 2.51 2.51 0 0 0 -.01-1.74m-.26 1.76a1.45 1.45 0 0 1 -1.24 1h-.52-.89v-1.76-.28-1.63h.91a4.93 4.93 0 0 1 .55 0 1.46 1.46 0 0 1 1.23 1.11 2.21 2.21 0 0 1 -.04 1.52z" fill="#383434" transform="translate(.05)"/><path d="m30 60a1.72 1.72 0 0 0 -.7-.88 1.41 1.41 0 0 0 -.51-.18 9.2 9.2 0 0 0 -1.16-.09h-.84v4.15h1.55a2.05 2.05 0 0 0 .91-.25 1.72 1.72 0 0 0 .77-1 2.57 2.57 0 0 0 -.02-1.75zm-.26 1.76a1.44 1.44 0 0 1 -1.24 1 4.53 4.53 0 0 1 -.52 0h-.89v-1.76-.28-1.63h.91a4.93 4.93 0 0 1 .55 0 1.43 1.43 0 0 1 1.23 1.11 2.27 2.27 0 0 1 -.04 1.52z" fill="none" stroke="#383434" stroke-miterlimit="10" stroke-width=".25" transform="translate(.05)"/><path d="m12.84 59.11v1.62h2.08v.27h-2.09v1.75h2.43v.25h-2.72v-4.17h2.72v.27h-2.42" fill="#383434" transform="translate(.05)"/><path d="m12.84 59.1v1.63h2.08v.27h-2.09v1.75h2.42v.25h-2.72v-4.18h2.72v.28z" fill="none" stroke="#383434" stroke-miterlimit="10" stroke-width=".25" transform="translate(.05)"/><path d="m22.91 59.09v1.62h2.09v.29h-2.1v1.75h2.43v.25h-2.72v-4.19h2.72v.27h-2.42" fill="#383434" transform="translate(.05)"/><path d="m22.91 59.09v1.62h2.09v.29h-2.1v1.75h2.42v.25h-2.72v-4.2h2.72v.27h-2.41z" fill="none" stroke="#383434" stroke-miterlimit="10" stroke-width=".25" transform="translate(.05)"/><path d="m49.58 59.09v1.62h2.09v.29h-2.09v1.75h2.42v.25h-2.72v-4.19h2.72v.27h-2.42" fill="#383434" transform="translate(.05)"/><path d="m49.58 59.09v1.62h2.08v.29h-2.09v1.75h2.43v.25h-2.72v-4.2h2.72v.27h-2.42z" fill="none" stroke="#383434" stroke-miterlimit="10" stroke-width=".25" transform="translate(.05)"/><path d="m36.53 58.81v.25h-1.54v3.98h-.29v-3.98h-1.57v-.25z" fill="#383434"/><path d="m36.53 58.81v.24h-1.55v3.98h-.29v-3.98h-1.56v-.24z" fill="none" stroke="#383434" stroke-miterlimit="10" stroke-width=".25"/><path d="m21 58.81v4.22h-.33v-3.61l-1.58 2.54-.19.31-.19-.31h-.01l-1.57-2.53v3.61h-.33v-4.23h.33l1.77 2.84 1.77-2.84z" fill="#383434"/><path d="m21 58.81v4.22h-.33v-3.61l-1.58 2.54-.19.31-.2-.31h.01-.01l-1.57-2.53v3.6h-.33v-4.22h.33l1.77 2.84 1.77-2.84z" fill="none" stroke="#383434" stroke-miterlimit="10" stroke-width=".25"/><path d="m56.73 0h15.35v18.47l23.25-18.47h26.98l-39.2 27.46 39.2 26.65h-28.07l-22.16-18.42v18.42h-15.35z" fill="#d03d42"/><path d="m106.75 12.1 15.56-10.75v38.19l37.93.05-10.97 14.52h-25.08l-17.44-11.69z" fill="#d03d42"/><path d="m56.73 1.51 10.89.33-10.89 6z" fill="#ab3438" fill-rule="evenodd"/><path d="m56.73 24.71 27.57 1.93-1.19.82 6.47 4.39-23.99-1.89-8.86 6.96z" fill="#ab3438"/><path d="m84.97 8.22 3.03 15.82 17.22-12.07 1.37-11.97h-11.28z" fill="#ab3438"/><path d="m106.75 15.36 15.56-2.53v24.39l-10.11 8.86-5.45-3.66z" fill="#ab3438"/><path d="m92.39 33.76-10.03 10.52 11.88 9.83h8.79l8.41-7.41z" fill="#ab3438"/><path d="m56.73 45.32 15.35 6.35v2.44h-15.35z" fill="#ab3438"/><path d="m142.28 39.57 17.96.02-10.97 14.52-12.48-.02z" fill="#ab3438"/><path d="m51.37 31.72a.39.39 0 0 1 .4-.39c1-.13 2-.29 3.09-.44v-6l-3-.55c-.21 0-.32-.1-.34-.32a23.05 23.05 0 0 0 -1.32-5.1.33.33 0 0 1 .11-.46c.34-.25.66-.53 1-.8s.9-.74 1.35-1.13l-1.41-2.4-.11-.19-1.5-2.53-.68.26-.86.33-.19.08-.57.22-.39.16a.43.43 0 0 1 -.61-.15 20.31 20.31 0 0 0 -1.54-1.8c-.63-.65-1.32-1.24-2-1.84-.17-.14-.22-.26-.11-.45s.12-.28.18-.42c.31-.78.63-1.56 1-2.35l-5.12-3.15c-.7.81-1.38 1.59-2 2.38a.37.37 0 0 1 -.49.13 22.22 22.22 0 0 0 -5-1.35c-.28 0-.36-.16-.39-.41-.15-1-.31-2-.47-2.95h-6c-.16 1-.33 2-.47 2.93 0 .31-.17.4-.46.48-1.47.36-2.94.74-4.4 1.16-.36.1-.55.11-.79-.21-.59-.77-1.22-1.46-1.84-2.26l-5.15 3 .06.16.54 1.42.25.68c.09.2.16.41.25.61s.08.31-.11.45a20 20 0 0 0 -3.7 3.76.4.4 0 0 1 -.57.15c-.81-.36-1.63-.7-2.46-1-.15-.06-.3-.2-.45.06-.68 1.15-1.39 2.37-2.1 3.59-.25.45-.52.9-.79 1.37.8.65 1.58 1.3 2.37 1.93.21.16.22.29.15.54-.4 1.31-.76 2.62-1.13 3.94a.37.37 0 0 0 0 .15c-.11.4-.34 1-.66 1l-.68.11-.56.1-1.7.32v6c1.05.16 2.06.33 3.07.47.26 0 .36.12.4.39a23.54 23.54 0 0 0 1.44 5.19.33.33 0 0 1 -.13.45l-.14.11c-.55.45-1.1.91-1.65 1.35l-.42.35-.21.17 3 5.19.74-.21 1.52-.59.65-.26a.42.42 0 0 1 .55.14c1 1 2 2.06 3.07 3a.54.54 0 0 1 .17.73c-.38.98-.76 1.98-1.16 2.98l5.1 3c.74-.88 1.46-1.71 2.15-2.56a.47.47 0 0 1 .58-.17c1.39.42 2.79.83 4.2 1.2.86.22.87.18 1 1.06s.25 1.61.38 2.42h6c.16-1 .34-1.93.47-2.88a.48.48 0 0 1 .47-.48 21.48 21.48 0 0 0 4.75-1.21.43.43 0 0 1 .6.18c.63.84 1.28 1.68 1.94 2.53l5.23-2.83c-.05-.15-.09-.29-.14-.42-.33-.94-.65-1.88-1-2.81a.42.42 0 0 1 .14-.55c1-1 2.1-2 3.11-3 .56-.57.53-.6 1.27-.32l2.51 1c1-1.76 2-3.49 3-5.23-.79-.64-1.54-1.27-2.32-1.87a.5.5 0 0 1 -.17-.7 22 22 0 0 0 1.26-4.57m-48.12-3.2h-.85s-1.37-.24-1-2a2 2 0 0 0 1.23 1c.47.08 1.05-.14 1.71-1-.04-.04.21 1.72-1.09 2zm36.79-24.24a1.25 1.25 0 0 1 .25 2.47v.18h.52v.46h-.52v.7h-.45v-.7h-.52v-.46h.52v-.17a1.25 1.25 0 0 1 .26-2.47zm-13.7-2.52.31-.26a.84.84 0 0 0 1.28 0l.29.29a1.63 1.63 0 0 1 -.41.33 1 1 0 0 1 -.27 2v.43h.52v.38h-.52v.67h-.41v-.67h-.52v-.4h.52v-.44a1 1 0 0 1 -.35-1.9 1.46 1.46 0 0 1 -.44-.43zm-12.35 2.83a1.28 1.28 0 0 1 .93.23 1.7 1.7 0 0 1 .6.88 1.64 1.64 0 0 1 -.31 1.28h.73v-.69h.36v.64h.64v-.1h.47v.55h-1.13v.44h.08v.47h-.6v-.47h.18v-.42h-1.8v-.47a.83.83 0 0 0 1-1 .15.15 0 0 0 0-.07.92.92 0 0 0 -1.12-.84zm-9.44 10.59a1 1 0 0 1 1.63-.8l.36-.34-.18-.19.88-.13-.3.83-.19-.18-.33.33a1 1 0 0 1 .12.48 1 1 0 1 1 -2 0zm3.88 25.49h-1.26a1 1 0 0 1 -.55.64h-.12v1h-.43v-1a1 1 0 0 1 -.79-.71h-1v-.46h1a.86.86 0 0 1 .08-.21l-.69-.69.33-.31.67.68.09-.06a1.12 1.12 0 0 1 .31-.1v-.92h.43v.95a1.07 1.07 0 0 1 .38.2l.72-.75.32.33-.78.77a.88.88 0 0 1 0 .15h1.29zm18.94 7.78a21.06 21.06 0 1 1 21.06-21.06 21.06 21.06 0 0 1 -21.06 21.06zm22.86-8.36v.5a.35.35 0 0 1 .08.22.36.36 0 0 1 -.72 0 .36.36 0 0 1 .19-.31 1.49 1.49 0 0 0 -.21-1.41 1.17 1.17 0 0 0 -1.19-.55 1.4 1.4 0 0 0 -1 1.21 1.36 1.36 0 0 0 0 .72.36.36 0 0 1 -.09.7.33.33 0 0 1 -.19-.06.37.37 0 0 1 -.15-.3.33.33 0 0 1 0-.17 2.61 2.61 0 0 1 -.08-.88 1.81 1.81 0 0 1 1.78-1.66 1.87 1.87 0 0 1 1.58 1.99zm-.88-25a.31.31 0 0 0 -.48 0l-.13.11-.35.28v1.07h-.4v-2.9h-.19v-.43h.81v.43h-.2v1.28l.17-.11.37-.23a.59.59 0 0 1 .78.34c.29.57.44 1.49 1.11.82l.22.31a1.63 1.63 0 0 1 -.47.28c-1 .1-1.03-1.01-1.24-1.26zm1.05 11.31a.35.35 0 0 1 .35.35.35.35 0 0 1 -.19.32 1.53 1.53 0 0 0 .22 1.41 1.18 1.18 0 0 0 1.19.55 1.43 1.43 0 0 0 1-1.21 1.59 1.59 0 0 0 0-.72.36.36 0 0 1 .09-.7.31.31 0 0 1 .19.06.34.34 0 0 1 .16.29.53.53 0 0 1 0 .18 2.6 2.6 0 0 1 .07.88 1.78 1.78 0 0 1 -1.77 1.65 1.85 1.85 0 0 1 -1.6-2c0-.15 0-.33 0-.5a.35.35 0 0 1 -.07-.23.36.36 0 0 1 .36-.34zm-9.46-20.88a.88.88 0 1 1 -1.75 0 .88.88 0 0 1 1.75 0z" fill="#282828" fill-rule="evenodd" transform="translate(.05)"/><path d="m4.36 26.55c-.66.87-1.24 1.09-1.7 1a2 2 0 0 1 -1.24-1c-.32 1.76 1 2 1 2h.85c1.3-.28 1.05-2 1.05-2" fill="#282828" fill-rule="evenodd" transform="translate(.05)"/><path d="m6.42 13.92.18.19-.36.34a1 1 0 1 0 -.62 1.82 1 1 0 0 0 1-1 1.14 1.14 0 0 0 -.12-.48l.33-.33.18.18.27-.83z" fill="#282828" fill-rule="evenodd" transform="translate(.05)"/><path d="m7.25 40.28c0-.05 0-.1 0-.14l.75-.78-.34-.36-.72.72a.91.91 0 0 0 -.37-.21v-.95h-.44v.92a1.12 1.12 0 0 0 -.31.1l-.09.06-.67-.64-.33.33.69.69a1 1 0 0 0 -.09.27h-1v.47h1a1 1 0 0 0 .79.7v1h.44v-1h.12a1 1 0 0 0 .54-.63h1.27v-.47z" fill="#282828" fill-rule="evenodd" transform="translate(.05)"/><path d="m17.49 7.45v-.55h-.49v.1h-.68v-.64h-.32v.7h-.7a1.67 1.67 0 0 0 .31-1.29 1.7 1.7 0 0 0 -.6-.88 1.28 1.28 0 0 0 -.93-.23v.47a.93.93 0 0 1 1.1.87.83.83 0 0 1 -1 1v.48h1.82v.42h-.14v.47h.6v-.47h-.08v-.45z" fill="#282828" fill-rule="evenodd" transform="translate(.05)"/><path d="m27.6 4.16a1 1 0 0 0 .84-1 1 1 0 0 0 -.57-.92 1.93 1.93 0 0 0 .41-.33l-.28-.32a.84.84 0 0 1 -1.28 0l-.3.25a1.32 1.32 0 0 0 .44.42 1 1 0 0 0 .35 1.9v.43h-.53v.41h.53v.67h.4v-.67h.53v-.4h-.54z" fill="#282828" fill-rule="evenodd" transform="translate(.05)"/><path d="m50.24 40.67c0-.18 0-.35 0-.51a1.87 1.87 0 0 0 -1.6-2 1.81 1.81 0 0 0 -1.78 1.66 2.59 2.59 0 0 0 .08.88.33.33 0 0 0 0 .17.36.36 0 0 0 .15.3.33.33 0 0 0 .19.06.36.36 0 0 0 .09-.7 1.36 1.36 0 0 1 0-.72 1.4 1.4 0 0 1 1-1.21 1.17 1.17 0 0 1 1.19.55 1.49 1.49 0 0 1 .21 1.41.36.36 0 0 0 -.19.31.36.36 0 0 0 .72 0 .3.3 0 0 0 -.08-.21" fill="#282828" fill-rule="evenodd" transform="translate(.05)"/><path d="m50.88 15.81c-.67.67-.82-.25-1.11-.82a.59.59 0 0 0 -.78-.34l-.37.23-.17.11v-1.3h.2v-.43h-.81v.43h.16v2.87h.4v-1.04l.35-.28.13-.11a.31.31 0 0 1 .48 0c.21.25.24 1.36 1.22 1.25a1.63 1.63 0 0 0 .47-.28z" fill="#282828" fill-rule="evenodd" transform="translate(.05)"/><path d="m53.43 27a.53.53 0 0 0 0-.17.35.35 0 0 0 -.16-.3.31.31 0 0 0 -.19-.06.36.36 0 0 0 -.36.36.35.35 0 0 0 .27.34 1.59 1.59 0 0 1 0 .72 1.43 1.43 0 0 1 -1 1.21 1.18 1.18 0 0 1 -1.19-.55 1.53 1.53 0 0 1 -.22-1.41.34.34 0 0 0 .19-.31.36.36 0 1 0 -.71 0 .34.34 0 0 0 .07.22v.5a1.86 1.86 0 0 0 1.6 2 1.8 1.8 0 0 0 1.77-1.66 2.6 2.6 0 0 0 -.07-.88" fill="#282828" fill-rule="evenodd" transform="translate(.05)"/><path d="m53.43 27a.53.53 0 0 0 0-.17.35.35 0 0 0 -.16-.3.31.31 0 0 0 -.19-.06.36.36 0 0 0 -.36.36.35.35 0 0 0 .27.34 1.59 1.59 0 0 1 0 .72 1.43 1.43 0 0 1 -1 1.21 1.18 1.18 0 0 1 -1.19-.55 1.53 1.53 0 0 1 -.22-1.41.34.34 0 0 0 .19-.31.36.36 0 1 0 -.71 0 .34.34 0 0 0 .07.22v.5a1.86 1.86 0 0 0 1.6 2 1.8 1.8 0 0 0 1.77-1.66 2.6 2.6 0 0 0 -.07-.88" fill="#282828" fill-rule="evenodd" transform="translate(.05)"/><path d="m48.05 13.72v2.87h.4v-1.07l.35-.28.13-.11a.31.31 0 0 1 .48 0c.21.25.24 1.36 1.22 1.25a1.63 1.63 0 0 0 .47-.28l-.22-.31c-.67.67-.82-.25-1.11-.82a.59.59 0 0 0 -.78-.34l-.37.23-.17.11v-1.3h.2v-.43h-.81v.43h.16z" fill="#282828" fill-rule="evenodd" transform="translate(.05)"/><path d="m50.29 40.16a1.87 1.87 0 0 0 -1.6-2 1.81 1.81 0 0 0 -1.78 1.66 2.59 2.59 0 0 0 .08.88.33.33 0 0 0 0 .17.36.36 0 0 0 .15.3.33.33 0 0 0 .19.06.36.36 0 0 0 .09-.7 1.36 1.36 0 0 1 0-.72 1.4 1.4 0 0 1 1-1.21 1.17 1.17 0 0 1 1.19.55 1.49 1.49 0 0 1 .21 1.41.36.36 0 0 0 -.19.31.36.36 0 0 0 .72 0 .3.3 0 0 0 -.08-.21c0-.18 0-.35 0-.51" fill="#282828" fill-rule="evenodd" transform="translate(.05)"/><path d="m28.44 3.14a1 1 0 0 0 -.57-.92 1.93 1.93 0 0 0 .41-.33l-.28-.3a.84.84 0 0 1 -1.28 0l-.3.25a1.32 1.32 0 0 0 .44.42 1 1 0 0 0 .35 1.9v.43h-.53v.41h.53v.67h.4v-.67h.53v-.4h-.54v-.44a1 1 0 0 0 .84-1" fill="#282828" fill-rule="evenodd" transform="translate(.05)"/><path d="m17 7h-.68v-.64h-.32v.7h-.7a1.67 1.67 0 0 0 .31-1.29 1.7 1.7 0 0 0 -.6-.88 1.28 1.28 0 0 0 -.93-.23v.47a.93.93 0 0 1 1.1.87.83.83 0 0 1 -1 1v.48h1.82v.42h-.14v.47h.6v-.47h-.08v-.45h1.15v-.55h-.53z" fill="#282828" fill-rule="evenodd" transform="translate(.05)"/><path d="m7.21 40.14.79-.78-.34-.36-.72.72a.91.91 0 0 0 -.37-.21v-.95h-.44v.92a1.12 1.12 0 0 0 -.31.1l-.09.06-.67-.64-.33.33.69.69a1 1 0 0 0 -.09.27h-1v.47h1a1 1 0 0 0 .79.7v1h.44v-1h.12a1 1 0 0 0 .54-.63h1.27v-.47h-1.24c0-.05 0-.1 0-.14" fill="#282828" fill-rule="evenodd" transform="translate(.05)"/><path d="m5.62 16.27a1 1 0 0 0 1-1 1.14 1.14 0 0 0 -.12-.48l.33-.33.18.18.27-.83-.88.13.18.19-.36.34a1 1 0 1 0 -.62 1.82" fill="#282828" fill-rule="evenodd" transform="translate(.05)"/><path d="m4.36 26.55c-.66.87-1.24 1.09-1.7 1a2 2 0 0 1 -1.24-1c-.32 1.76 1 2 1 2h.85c1.3-.28 1.05-2 1.05-2" fill="#282828" fill-rule="evenodd" transform="translate(.05)"/><path d="m53.43 27a.53.53 0 0 0 0-.17.35.35 0 0 0 -.16-.3.31.31 0 0 0 -.19-.06.36.36 0 0 0 -.36.36.35.35 0 0 0 .27.34 1.59 1.59 0 0 1 0 .72 1.43 1.43 0 0 1 -1 1.21 1.18 1.18 0 0 1 -1.19-.55 1.53 1.53 0 0 1 -.22-1.41.34.34 0 0 0 .19-.31.36.36 0 1 0 -.71 0 .34.34 0 0 0 .07.22v.5a1.86 1.86 0 0 0 1.6 2 1.8 1.8 0 0 0 1.77-1.66 2.6 2.6 0 0 0 -.07-.88" fill="#fff" fill-rule="evenodd" transform="translate(.05)"/><path d="m48.05 13.72v2.87h.4v-1.07l.35-.28.13-.11a.31.31 0 0 1 .48 0c.21.25.24 1.36 1.22 1.25a1.63 1.63 0 0 0 .47-.28l-.22-.31c-.67.67-.82-.25-1.11-.82a.59.59 0 0 0 -.78-.34l-.37.23-.17.11v-1.3h.2v-.43h-.81v.43h.16z" fill="#fff" fill-rule="evenodd" transform="translate(.05)"/><path d="m50.29 40.16a1.87 1.87 0 0 0 -1.6-2 1.81 1.81 0 0 0 -1.78 1.66 2.59 2.59 0 0 0 .08.88.33.33 0 0 0 0 .17.36.36 0 0 0 .15.3.33.33 0 0 0 .19.06.36.36 0 0 0 .09-.7 1.36 1.36 0 0 1 0-.72 1.4 1.4 0 0 1 1-1.21 1.17 1.17 0 0 1 1.19.55 1.49 1.49 0 0 1 .21 1.41.36.36 0 0 0 -.19.31.36.36 0 0 0 .72 0 .3.3 0 0 0 -.08-.21c0-.18 0-.35 0-.51" fill="#fff" fill-rule="evenodd" transform="translate(.05)"/><path d="m40.35 6.82a1.25 1.25 0 1 0 -.51 0v.18h-.52v.45h.52v.7h.45v-.7h.52v-.45h-.52v-.17m-.26-.35a.88.88 0 1 1 .97-.88.87.87 0 0 1 -.91.87z" fill="#fff" fill-rule="evenodd" transform="translate(.05)"/><path d="m28.44 3.14a1 1 0 0 0 -.57-.92 1.93 1.93 0 0 0 .41-.33l-.28-.3a.84.84 0 0 1 -1.28 0l-.3.25a1.32 1.32 0 0 0 .44.42 1 1 0 0 0 .35 1.9v.43h-.53v.41h.53v.67h.4v-.67h.53v-.4h-.54v-.44a1 1 0 0 0 .84-1" fill="#fff" fill-rule="evenodd" transform="translate(.05)"/><path d="m17 7h-.68v-.64h-.32v.7h-.7a1.67 1.67 0 0 0 .31-1.29 1.7 1.7 0 0 0 -.6-.88 1.28 1.28 0 0 0 -.93-.23v.47a.93.93 0 0 1 1.1.87.83.83 0 0 1 -1 1v.48h1.82v.42h-.14v.47h.6v-.47h-.08v-.45h1.15v-.55h-.53z" fill="#fff" fill-rule="evenodd" transform="translate(.05)"/><path d="m7.21 40.14.79-.78-.34-.36-.72.72a.91.91 0 0 0 -.37-.21v-.95h-.44v.92a1.12 1.12 0 0 0 -.31.1l-.09.06-.67-.64-.33.33.69.69a1 1 0 0 0 -.09.27h-1v.47h1a1 1 0 0 0 .79.7v1h.44v-1h.12a1 1 0 0 0 .54-.63h1.27v-.47h-1.24c0-.05 0-.1 0-.14" fill="#fff" fill-rule="evenodd" transform="translate(.05)"/><path d="m5.62 16.27a1 1 0 0 0 1-1 1.14 1.14 0 0 0 -.12-.48l.33-.33.18.18.27-.83-.88.13.18.19-.36.34a1 1 0 1 0 -.62 1.82" fill="#fff" fill-rule="evenodd" transform="translate(.05)"/><path d="m4.36 26.55c-.66.87-1.24 1.09-1.7 1a2 2 0 0 1 -1.24-1c-.32 1.76 1 2 1 2h.85c1.3-.28 1.05-2 1.05-2" fill="#fff" fill-rule="evenodd" transform="translate(.05)"/></svg>